<svg width="316" height="817" viewBox="0 0 316 817" fill="none" xmlns="http://www.w3.org/2000/svg">
<path d="M150 8C150 12.4183 153.582 16 158 16C162.418 16 166 12.4183 166 8C166 3.58172 162.418 0 158 0C153.582 0 150 3.58172 150 8ZM157.757 9.48022C182.173 13.4852 218.885 23.4714 249.63 40.3751C280.45 57.3199 304.793 80.9335 305.5 112.034L308.5 111.966C307.754 79.1808 282.127 54.8182 251.075 37.7463C219.949 20.6333 182.888 10.5624 158.243 6.51978L157.757 9.48022Z" fill="black" fill-opacity="0.59"/>
<path d="M303.494 126.661L298.419 110.834L315.581 113.166L306.467 127.065L303.494 126.661ZM157.759 213.519C180.386 209.844 213.587 201.078 242.81 186.479C272.106 171.845 297.012 151.548 303.729 125.005L306.637 125.74C299.584 153.611 273.636 174.435 244.151 189.163C214.595 203.928 181.089 212.769 158.241 216.481L157.759 213.519Z" fill="black" fill-opacity="0.59"/>
<path d="M142.984 216.335L156.378 206.493L159.622 223.507L143.546 219.282L142.984 216.335ZM145.053 218.994C119.352 224.527 85.9266 235.212 58.8013 251.756C31.6306 268.328 11.148 290.538 10.4996 319.034L7.50038 318.966C8.18407 288.92 29.7729 265.947 57.2392 249.195C84.751 232.415 118.529 221.636 144.422 216.062L145.053 218.994Z" fill="black" fill-opacity="0.59"/>
<path d="M158 422L144.867 410.707L141.654 427.727L158 422ZM12.5058 333.661L17.5814 317.834L0.418579 320.166L9.53311 334.065L12.5058 333.661ZM145.05 418.029C121.404 412.988 91.2062 403.624 65.3948 389.389C39.5329 375.126 18.3801 356.145 12.271 332.005L9.36272 332.74C15.7814 358.104 37.8494 377.624 63.946 392.016C90.0933 406.436 120.592 415.882 144.425 420.963L145.05 418.029Z" fill="black" fill-opacity="0.59"/>
<path d="M307 526L313.599 509.986L296.431 512.278L307 526ZM157.757 423.48C180.399 427.194 213.631 436.055 242.87 450.814C272.178 465.609 297.087 486.131 303.758 512.981L306.669 512.258C299.669 484.084 273.726 463.029 244.222 448.136C214.648 433.208 181.109 424.271 158.243 420.52L157.757 423.48Z" fill="black" fill-opacity="0.59"/>
<path d="M158 629L171.133 617.707L174.346 634.727L158 629ZM170.95 625.029C196.652 619.55 230.078 608.967 257.204 592.582C284.379 576.167 304.852 554.173 305.5 525.966L308.5 526.034C307.816 555.806 286.218 578.561 258.755 595.149C231.244 611.767 197.468 622.443 171.575 627.963L170.95 625.029Z" fill="black" fill-opacity="0.59"/>
<path d="M9 733L2.40103 716.986L19.5692 719.278L9 733ZM158.243 630.48C135.601 634.194 102.369 643.055 73.1302 657.814C43.8222 672.609 18.9133 693.131 12.2423 719.981L9.3308 719.258C16.3308 691.084 42.2745 670.029 71.7783 655.136C101.352 640.208 134.891 631.271 157.757 627.52L158.243 630.48Z" fill="black" fill-opacity="0.59"/>
<path d="M158 836C108.939 828.03 10.4537 796.271 9 733" stroke="black" stroke-opacity="0.59" stroke-width="3" stroke-dasharray="6 6"/>
</svg>
